<?xml version="1.0" encoding="UTF-8" standalone="no"?>
<!-- Created with Inkscape (http://www.inkscape.org/) -->

<svg
   xmlns:dc="http://purl.org/dc/elements/1.1/"
   xmlns:cc="http://creativecommons.org/ns#"
   xmlns:rdf="http://www.w3.org/1999/02/22-rdf-syntax-ns#"
   xmlns:svg="http://www.w3.org/2000/svg"
   xmlns="http://www.w3.org/2000/svg"
   xmlns:sodipodi="http://sodipodi.sourceforge.net/DTD/sodipodi-0.dtd"
   xmlns:inkscape="http://www.inkscape.org/namespaces/inkscape"
   width="16.933332mm"
   height="16.933332mm"
   viewBox="0 0 16.933332 16.933332"
   version="1.1"
   id="svg8"
   inkscape:version="0.92.4 (5da689c313, 2019-01-14)"
   sodipodi:docname="icon-recolor.svg">
  <defs
     id="defs2" />
  <sodipodi:namedview
     id="base"
     pagecolor="#ffffff"
     bordercolor="#666666"
     borderopacity="1.0"
     inkscape:pageopacity="0.0"
     inkscape:pageshadow="2"
     inkscape:zoom="11.2"
     inkscape:cx="22.127151"
     inkscape:cy="37.171094"
     inkscape:document-units="mm"
     inkscape:current-layer="layer2"
     showgrid="false"
     inkscape:window-width="1920"
     inkscape:window-height="1001"
     inkscape:window-x="-9"
     inkscape:window-y="-9"
     inkscape:window-maximized="1"
     fit-margin-top="0"
     fit-margin-left="0"
     fit-margin-right="0"
     fit-margin-bottom="0" />
  <metadata
     id="metadata5">
    <rdf:RDF>
      <cc:Work
         rdf:about="">
        <dc:format>image/svg+xml</dc:format>
        <dc:type
           rdf:resource="http://purl.org/dc/dcmitype/StillImage" />
        <dc:title />
      </cc:Work>
    </rdf:RDF>
  </metadata>
  <g
     inkscape:label="BASE"
     inkscape:groupmode="layer"
     id="layer1"
     transform="translate(-70.681549,-74.825592)"
     sodipodi:insensitive="true">
    <rect
       id="rect3713"
       width="16.933332"
       height="16.933332"
       x="70.681549"
       y="74.825592"
       style="fill:none;stroke-width:0.22794873" />
  </g>
  <g
     inkscape:groupmode="layer"
     id="layer2"
     inkscape:label="ICON">
    <g
       transform="matrix(0.02623414,0,0,0.02623414,4.5315452,4.5315452)"
       id="g102">
      <g
         style="font-size:12px;fill:#000000;fill-opacity:0;stroke:#000000;stroke-width:0.01;stroke-linecap:butt;stroke-linejoin:miter;stroke-miterlimit:10;stroke-opacity:1"
         font-size="1.0em"
         stroke-miterlimit="10.0"
         id="g100">
        <g
           transform="matrix(150,0,0,150,150,150)"
           id="g98">
          <g
             style="fill:#e40045;fill-opacity:1;stroke-width:0"
             id="g4">
            <path
               inkscape:connector-curvature="0"
               d="m 0,0 0.38268343,-0.92387953 c -0.080739,-0.0334432 -0.1655136,-0.0561585 -0.25215724,-0.0675653 z"
               id="path2" />
          </g>
          <g
             style="fill:#cd0074;fill-opacity:1;stroke-width:0"
             id="g8">
            <path
               inkscape:connector-curvature="0"
               d="m 0,0 0.60876143,-0.79335334 c -0.0693322,-0.0532004 -0.14533898,-0.097083 -0.226078,-0.13052619 z"
               id="path6" />
          </g>
          <g
             style="fill:#a600a6;fill-opacity:1;stroke-width:0"
             id="g12">
            <path
               inkscape:connector-curvature="0"
               d="M 0,0 0.79335334,-0.60876143 C 0.7401529,-0.6780936 0.6780936,-0.7401529 0.60876143,-0.79335334 Z"
               id="path10" />
          </g>
          <g
             style="fill:#7109aa;fill-opacity:1;stroke-width:0"
             id="g16">
            <path
               inkscape:connector-curvature="0"
               d="m 0,0 0.92387953,-0.38268343 c -0.0334432,-0.080739 -0.0773257,-0.15674583 -0.13052619,-0.226078 z"
               id="path14" />
          </g>
          <g
             style="fill:#530fad;fill-opacity:1;stroke-width:0"
             id="g20">
            <path
               inkscape:connector-curvature="0"
               d="m 0,0 0.99144486,-0.13052619 c -0.0114068,-0.0866436 -0.0341221,-0.17141822 -0.0675653,-0.25215724 z"
               id="path18" />
          </g>
          <g
             style="fill:#3914af;fill-opacity:1;stroke-width:0"
             id="g24">
            <path
               inkscape:connector-curvature="0"
               d="m 0,0 0.99144486,0.13052619 c 0.0114068,-0.08664364 0.0114068,-0.17440874 0,-0.26105238 z"
               id="path22" />
          </g>
          <g
             style="fill:#1b1bb3;fill-opacity:1;stroke-width:0"
             id="g28">
            <path
               inkscape:connector-curvature="0"
               d="m 0,0 0.92387953,0.38268343 c 0.0334432,-0.080739 0.0561585,-0.1655136 0.0675653,-0.25215724 z"
               id="path26" />
          </g>
          <g
             style="fill:#1240ab;fill-opacity:1;stroke-width:0"
             id="g32">
            <path
               inkscape:connector-curvature="0"
               d="m 0,0 0.79335334,0.60876143 c 0.0532004,-0.0693322 0.097083,-0.14533898 0.13052619,-0.226078 z"
               id="path30" />
          </g>
          <g
             style="fill:#0b61a4;fill-opacity:1;stroke-width:0"
             id="g36">
            <path
               inkscape:connector-curvature="0"
               d="M 0,0 0.60876143,0.79335334 C 0.6780936,0.7401529 0.7401529,0.6780936 0.79335334,0.60876143 Z"
               id="path34" />
          </g>
          <g
             style="fill:#009999;fill-opacity:1;stroke-width:0"
             id="g40">
            <path
               inkscape:connector-curvature="0"
               d="m 0,0 0.38268343,0.92387953 c 0.080739,-0.0334432 0.15674583,-0.0773257 0.226078,-0.13052619 z"
               id="path38" />
          </g>
          <g
             style="fill:#00af64;fill-opacity:1;stroke-width:0"
             id="g44">
            <path
               inkscape:connector-curvature="0"
               d="m 0,0 0.13052619,0.99144486 c 0.0866436,-0.0114068 0.17141822,-0.0341221 0.25215724,-0.0675653 z"
               id="path42" />
          </g>
          <g
             style="fill:#00cc00;fill-opacity:1;stroke-width:0"
             id="g48">
            <path
               inkscape:connector-curvature="0"
               d="m 0,0 -0.13052619,0.99144486 c 0.08664364,0.0114068 0.17440874,0.0114068 0.26105238,0 z"
               id="path46" />
          </g>
          <g
             style="fill:#67e300;fill-opacity:1;stroke-width:0"
             id="g52">
            <path
               inkscape:connector-curvature="0"
               d="m 0,0 -0.38268343,0.92387953 c 0.080739,0.0334432 0.1655136,0.0561585 0.25215724,0.0675653 z"
               id="path50" />
          </g>
          <g
             style="fill:#9fee00;fill-opacity:1;stroke-width:0"
             id="g56">
            <path
               inkscape:connector-curvature="0"
               d="m 0,0 -0.60876143,0.79335334 c 0.0693322,0.0532004 0.14533898,0.097083 0.226078,0.13052619 z"
               id="path54" />
          </g>
          <g
             style="fill:#ccf600;fill-opacity:1;stroke-width:0"
             id="g60">
            <path
               inkscape:connector-curvature="0"
               d="m 0,0 -0.79335334,0.60876143 c 0.0532004,0.0693322 0.11525974,0.13139147 0.18459191,0.18459191 z"
               id="path58" />
          </g>
          <g
             style="fill:#ffff00;fill-opacity:1;stroke-width:0"
             id="g64">
            <path
               inkscape:connector-curvature="0"
               d="m 0,0 -0.92387953,0.38268343 c 0.0334432,0.080739 0.0773257,0.15674583 0.13052619,0.226078 z"
               id="path62" />
          </g>
          <g
             style="fill:#ffe800;fill-opacity:1;stroke-width:0"
             id="g68">
            <path
               inkscape:connector-curvature="0"
               d="m 0,0 -0.99144486,0.13052619 c 0.0114068,0.0866436 0.0341221,0.17141822 0.0675653,0.25215724 z"
               id="path66" />
          </g>
          <g
             style="fill:#ffd300;fill-opacity:1;stroke-width:0"
             id="g72">
            <path
               inkscape:connector-curvature="0"
               d="m 0,0 -0.99144486,-0.13052619 c -0.0114068,0.08664364 -0.0114068,0.17440874 0,0.26105238 z"
               id="path70" />
          </g>
          <g
             style="fill:#ffbf00;fill-opacity:1;stroke-width:0"
             id="g76">
            <path
               inkscape:connector-curvature="0"
               d="m 0,0 -0.92387953,-0.38268343 c -0.0334432,0.080739 -0.0561585,0.1655136 -0.0675653,0.25215724 z"
               id="path74" />
          </g>
          <g
             style="fill:#ffaa00;fill-opacity:1;stroke-width:0"
             id="g80">
            <path
               inkscape:connector-curvature="0"
               d="m 0,0 -0.79335334,-0.60876143 c -0.0532004,0.0693322 -0.097083,0.14533898 -0.13052619,0.226078 z"
               id="path78" />
          </g>
          <g
             style="fill:#ff9200;fill-opacity:1;stroke-width:0"
             id="g84">
            <path
               inkscape:connector-curvature="0"
               d="m 0,0 -0.60876143,-0.79335334 c -0.0693322,0.0532004 -0.13139147,0.11525974 -0.18459191,0.18459191 z"
               id="path82" />
          </g>
          <g
             style="fill:#ff7400;fill-opacity:1;stroke-width:0"
             id="g88">
            <path
               inkscape:connector-curvature="0"
               d="m 0,0 -0.38268343,-0.92387953 c -0.080739,0.0334432 -0.15674583,0.0773257 -0.226078,0.13052619 z"
               id="path86" />
          </g>
          <g
             style="fill:#ff4900;fill-opacity:1;stroke-width:0"
             id="g92">
            <path
               inkscape:connector-curvature="0"
               d="m 0,0 -0.13052619,-0.99144486 c -0.0866436,0.0114068 -0.17141822,0.0341221 -0.25215724,0.0675653 z"
               id="path90" />
          </g>
          <g
             style="fill:#ff0000;fill-opacity:1;stroke-width:0"
             id="g96">
            <path
               inkscape:connector-curvature="0"
               d="m 0,0 0.13052619,-0.99144486 c -0.08664364,-0.0114068 -0.17440874,-0.0114068 -0.26105238,0 z"
               id="path94" />
          </g>
        </g>
      </g>
    </g>
  </g>
</svg>
